<?xml version="1.0" encoding="UTF-8" standalone="no"?>
<svg
   xmlns:dc="http://purl.org/dc/elements/1.1/"
   xmlns:cc="http://creativecommons.org/ns#"
   xmlns:rdf="http://www.w3.org/1999/02/22-rdf-syntax-ns#"
   xmlns:svg="http://www.w3.org/2000/svg"
   xmlns="http://www.w3.org/2000/svg"
   xmlns:sodipodi="http://sodipodi.sourceforge.net/DTD/sodipodi-0.dtd"
   xmlns:inkscape="http://www.inkscape.org/namespaces/inkscape"
   width="743.91699"
   height="1000"
   viewBox="0.526 0.358 44.470638 59.7852"
   id="svg6097"
   version="1.1"
   inkscape:version="0.91 r13725"
   sodipodi:docname="Punisher.svg">
  <metadata
     id="metadata6105">
    <rdf:RDF>
      <cc:Work
         rdf:about="">
        <dc:format>image/svg+xml</dc:format>
        <dc:type
           rdf:resource="http://purl.org/dc/dcmitype/StillImage" />
        <dc:title></dc:title>
      </cc:Work>
    </rdf:RDF>
  </metadata>
  <defs
     id="defs6103" />
  <sodipodi:namedview
     pagecolor="#ffffff"
     bordercolor="#666666"
     borderopacity="1"
     objecttolerance="10"
     gridtolerance="10"
     guidetolerance="10"
     inkscape:pageopacity="0"
     inkscape:pageshadow="2"
     inkscape:window-width="1366"
     inkscape:window-height="705"
     id="namedview6101"
     showgrid="false"
     inkscape:zoom="0.3776"
     inkscape:cx="760.13963"
     inkscape:cy="359.66945"
     inkscape:window-x="-8"
     inkscape:window-y="-8"
     inkscape:window-maximized="1"
     inkscape:current-layer="svg6097" />
  <path
     d="m 19.251697,44.286592 c -0.0904,-1.10918 -0.237196,-2.51396 -0.314796,-2.32356 -0.117998,0.29159 -0.137598,3.26715 -0.0416,8.55709 0.086,4.74754 -0.159198,8.73349 -0.281997,8.85628 -0.430395,0.43081 -1.806777,-0.19799 -2.250772,-1.02798 -0.257997,-0.482 -0.524793,-3.73795 -0.626792,-7.6499 -0.104799,-4.00715 -0.391995,-7.47031 -0.698392,-8.4115 -0.316795,-0.97279 -0.384794,-1.85357 -0.174797,-2.24717 0.190397,-0.356 0.234797,-0.75839 0.0992,-0.89399 -0.135598,-0.136 -0.231598,-0.79 -0.212798,-1.45278 0.0296,-1.04039 -0.108398,-1.20599 -1.003987,-1.20599 -1.080787,0 -4.9083395,2.21638 -4.9083395,2.84197 0,0.19679 0.3599955,0.35799 0.79999,0.35799 0.4443945,0 0.7999895,0.26679 0.7999895,0.6 0,0.72279 -1.3099831,0.78838 -2.3807698,0.1196 -0.6099925,-0.3812 -0.9875879,-0.364 -1.8203775,0.0812 -1.2287848,0.65798 -2.1375735,0.26519 -2.8647646,-1.23759 -0.563593,-1.16399 -0.642392,-1.68118 -0.5811928,-3.79876 0.039199,-1.34797 0.2291972,-1.71878 1.0823866,-2.10757 l 1.0347873,-0.47159 -1.2275848,-1.39838 C 1.9307119,29.482372 1.3471192,28.186002 0.80952585,25.098842 0.2823324,22.071682 0.51032957,15.140962 1.2135208,12.815782 1.8051135,10.860612 6.5322551,5.8370725 9.7254154,3.7706995 13.746966,1.1683305 16.62893,0.36954054 22.036463,0.35794154 c 4.02395,-0.0084 5.020338,0.133198 7.960301,1.13278496 6.363922,2.163574 11.39666,6.302322 13.771031,11.3246555 1.126386,2.38238 1.258384,3.04036 1.222785,6.07193 -0.028,2.33717 -0.433995,5.00794 -1.297584,8.54309 -1.312784,5.37394 -1.483182,6.87912 -0.88559,7.8235 1.058787,1.67318 -3.055162,6.11313 -4.979538,5.37474 -0.511995,-0.19599 -0.601993,-0.55999 -0.401596,-1.62718 0.323996,-1.72637 -0.290396,-2.51837 -1.938776,-2.49957 -2.175172,0.0248 -3.114761,0.83399 -3.275159,2.82157 -0.0784,0.97039 -0.509993,2.82716 -0.959188,4.12675 -0.594393,1.71958 -0.81639,3.37515 -0.81639,6.08352 0,2.04637 -0.200797,5.06794 -0.445195,6.71391 -0.418794,2.81517 -0.517193,3.01797 -1.659579,3.41597 -0.667991,0.23319 -1.277584,0.42359 -1.355183,0.42359 -0.0768,0 -0.139999,-3.90075 -0.139999,-8.66829 0,-7.46431 0.0908,-8.7691 0.654393,-9.39148 0.606392,-0.67 0.605192,-0.7416 -0.0176,-0.9804 -0.369195,-0.14199 -0.78679,-0.14239 -0.927988,-0.002 -0.141198,0.1416 -0.303996,3.71876 -0.361595,7.94951 -0.124399,9.11949 -0.381996,10.83947 -1.65238,11.02066 l -0.894389,0.1276 0,-8.98469 c 0,-7.6179 -0.0916,-9.02029 -0.599992,-9.21548 -0.522794,-0.2004 -0.599993,0.95518 -0.599993,8.95709 l 0,9.18748 -2.799965,0 c -0.0328,-5.27074 0.0012,-10.54267 -0.385596,-15.80101 z m 6.784717,-8.98349 c 0,-0.34679 -0.495194,-1.34718 -1.099986,-2.22356 l -1.099987,-1.59278 -0.126399,1.31398 c -0.0696,0.72279 0.200398,2.01957 0.599993,2.88197 0.640792,1.38278 0.785191,1.49038 1.226385,0.90918 0.275196,-0.36159 0.499994,-0.94198 0.499994,-1.28879 z m -4.315147,-0.73438 c 0.392795,-1.03519 0.714791,-2.30838 0.714791,-2.83077 4e-4,-0.79799 -0.0948,-0.86999 -0.599592,-0.45119 -0.329996,0.27439 -0.599993,0.72199 -0.599993,0.99518 0,0.27321 -0.383195,0.98399 -0.85119,1.57918 -0.723991,0.92079 -0.78159,1.23519 -0.384795,2.10598 0.561593,1.23279 0.792391,1.04519 1.720779,-1.39838 z m -2.710766,-4.87394 1.57398,-0.6624 -4.573943,-2.42636 c -7.8431032,-4.16155 -11.1938617,-5.75393 -11.5910568,-5.50874 -1.1963852,0.73959 0.6331922,6.83471 2.3227713,7.73871 0.7251909,0.38799 5.0783375,1.44078 7.2943105,1.76397 1.366783,0.1996 3.09756,-0.1156 4.973938,-0.90518 z m 16.825791,0.148 c 1.319583,-0.31561 2.849965,-0.9032 3.399958,-1.30599 1.192786,-0.87399 2.347572,-3.66596 2.377971,-5.74993 0.02,-1.37558 -0.0696,-1.49958 -1.077986,-1.49598 -1.346384,0.005 -4.655143,1.51038 -7.203912,3.27756 -1.042787,0.72319 -3.313958,2.05718 -5.046737,2.96436 l -3.150361,1.64918 1.750378,0.6344 c 3.039162,1.10198 4.436745,1.10598 8.950689,0.0264 z"
     id="path6099"
     inkscape:connector-curvature="0" />
</svg>
